<?xml version="1.0" encoding="UTF-8" standalone="no"?><!DOCTYPE svg PUBLIC "-//W3C//DTD SVG 1.1//EN" "http://www.w3.org/Graphics/SVG/1.1/DTD/svg11.dtd"><svg width="100%" height="100%" viewBox="0 0 4500 4500" version="1.1" xmlns="http://www.w3.org/2000/svg" xmlns:xlink="http://www.w3.org/1999/xlink" xml:space="preserve" xmlns:serif="http://www.serif.com/" style="fill-rule:evenodd;clip-rule:evenodd;stroke-linejoin:round;stroke-miterlimit:2;"><rect id="Page-1" serif:id="Page 1" x="0" y="0" width="4500" height="4500" style="fill:none;"/><g id="Layer-1" serif:id="Layer 1"><path d="M1022.623,2034.641c-75.422,0 -184.616,50.657 -184.616,179.55c0,110.319 85.554,189.681 181.239,189.681c53.471,0 112.571,-25.891 143.527,-69.794c14.634,-20.826 -19.7,-41.088 -32.083,-22.514c-26.454,33.771 -66.979,53.471 -110.319,53.471c-77.111,0 -142.402,-65.291 -142.402,-150.282c0,-110.882 85.554,-141.839 145.779,-141.839c37.711,0 72.045,10.694 102.439,42.777c15.76,16.886 45.591,-6.191 28.705,-25.328c-36.023,-38.274 -81.051,-55.722 -132.27,-55.722Z" style="fill:#4d4d4d;fill-rule:nonzero;"/><path d="M1351.049,2398.244l230.77,0c28.705,0 28.705,-37.148 0,-37.148l-210.507,0l0,-301.126c0,-13.508 -10.131,-19.7 -20.826,-19.7c-10.131,0 -20.826,6.191 -20.826,19.7l0,317.449c0,13.508 6.191,20.826 21.388,20.826Z" style="fill:#4d4d4d;fill-rule:nonzero;"/><path d="M1888.294,2403.873c95.685,0 180.113,-73.734 180.113,-190.807c0,-126.642 -109.193,-178.424 -184.616,-178.424c-74.297,0 -177.862,52.345 -177.862,178.424c0,119.325 81.051,190.807 182.364,190.807Zm-140.15,-189.119c0,-105.816 79.362,-142.402 136.773,-142.402c57.974,0 141.839,39.4 141.839,142.402c0,94.559 -62.477,150.845 -138.462,150.845c-79.362,0 -140.15,-58.537 -140.15,-150.845Z" style="fill:#4d4d4d;fill-rule:nonzero;"/><path d="M2533.043,2055.467l0,185.741c0,81.051 -61.914,122.139 -123.828,122.139c-61.914,0 -123.828,-41.088 -123.828,-122.139l0,-187.43c0,-12.946 -10.694,-19.137 -21.388,-19.137c-10.131,0 -20.826,6.191 -20.826,18.574l0,187.993c0,108.068 83.865,162.664 166.042,162.664c82.177,0 166.042,-54.597 166.042,-162.664l0,-186.304c0,-13.508 -10.694,-20.263 -20.826,-20.263c-10.694,0 -21.388,6.754 -21.388,20.826Z" style="fill:#4d4d4d;fill-rule:nonzero;"/><path d="M2773.664,2398.244l122.702,0c112.008,0 167.73,-89.494 167.73,-178.987c0,-89.494 -55.722,-178.987 -167.73,-178.987l-122.702,0c-14.071,0 -25.891,10.694 -25.891,23.64l0,310.132c0,12.946 11.82,24.203 25.891,24.203Zm14.634,-36.585l0,-285.366l108.068,0c84.428,0 126.642,72.045 126.642,142.965c0,70.919 -42.214,142.402 -126.642,142.402l-108.068,0Z" style="fill:#4d4d4d;fill-rule:nonzero;"/><path d="M3205.092,2319.445c18.574,67.542 106.379,84.428 163.79,84.428c69.231,0 165.479,-23.64 165.479,-109.756c0,-84.428 -82.739,-88.368 -159.85,-95.122c-65.291,-5.066 -121.576,-10.131 -121.576,-59.1c0,-51.22 73.171,-63.602 110.882,-63.602c40.525,0 100.751,4.503 117.636,47.28c8.443,19.137 46.717,9.006 38.274,-13.508c-23.64,-64.165 -97.374,-75.422 -156.473,-75.422c-68.668,0 -154.222,30.394 -154.222,104.691c0,83.865 83.302,91.182 160.976,97.374c61.914,5.066 121.013,9.006 121.013,57.974c0,56.848 -74.297,68.668 -122.139,68.668c-45.028,0 -107.505,-7.317 -122.139,-54.034c-4.503,-23.077 -48.405,-14.634 -41.651,10.131Z" style="fill:#4d4d4d;fill-rule:nonzero;"/><rect x="760.125" y="1957.108" width="529.175" height="529.179" style="fill:#4d4d4d;"/><path d="M1030.904,2037.082c-75.422,0 -184.616,50.657 -184.616,179.55c0,110.319 85.554,189.681 181.239,189.681c53.471,0 112.571,-25.891 143.527,-69.794c14.634,-20.826 -19.7,-41.088 -32.083,-22.514c-26.454,33.771 -66.979,53.471 -110.319,53.471c-77.111,0 -142.402,-65.291 -142.402,-150.282c0,-110.882 85.554,-141.839 145.779,-141.839c37.711,0 72.045,10.694 102.439,42.777c15.76,16.886 45.591,-6.191 28.705,-25.328c-36.023,-38.274 -81.051,-55.722 -132.27,-55.722Z" style="fill:#fff;fill-rule:nonzero;"/></g></svg>