<?xml version="1.0" encoding="UTF-8" standalone="no"?><!DOCTYPE svg PUBLIC "-//W3C//DTD SVG 1.1//EN" "http://www.w3.org/Graphics/SVG/1.1/DTD/svg11.dtd"><svg width="100%" height="100%" viewBox="0 0 6000 6000" version="1.1" xmlns="http://www.w3.org/2000/svg" xmlns:xlink="http://www.w3.org/1999/xlink" xml:space="preserve" xmlns:serif="http://www.serif.com/" style="fill-rule:evenodd;clip-rule:evenodd;stroke-linejoin:round;stroke-miterlimit:2;"><rect id="Page-1" serif:id="Page 1" x="0" y="0" width="6000" height="6000" style="fill:none;"/><g id="Layer-1" serif:id="Layer 1"><text x="1085.823px" y="3197.659px" style="font-family:'ArialMT', 'Arial', sans-serif;font-size:750.471px;fill:#4d4d4d;">C<tspan x="1757.247px 2304.081px 3017.279px 3688.703px 4360.126px " y="3197.659px 3197.659px 3197.659px 3197.659px 3197.659px ">LOUDS</tspan></text><rect x="1002.833" y="2602.811" width="705.567" height="705.572" style="fill:#4d4d4d;"/><text x="1090.072px" y="3194.683px" style="font-family:'ArialMT', 'Arial', sans-serif;font-size:750.471px;fill:#fff;">C</text><text x="1063.271px" y="3692.719px" style="font-family:'CenturyGothic', 'Century Gothic', sans-serif;font-size:133.333px;">A <tspan x="1332.201px 1498.068px 1584.721px 1651.406px 1769.805px 1863.139px 1952.852px 2019.537px 2100.852px 2271.132px 2372.043px 2542.34px 2680.473px 2761.788px 2828.473px 2918.186px 2984.87px 3078.204px 3159.519px 3226.203px 3312.856px 3379.541px 3466.194px 3532.878px 3572.983px 3639.667px 3733px 3814.315px 3880.999px 3970.713px 4141.007px 4274.073px 4319.256px 4385.94px 4466.994px 4533.679px 4691.669px 4785.012px " y="3692.719px 3692.719px 3692.719px 3692.719px 3692.719px 3692.719px 3692.719px 3692.719px 3692.719px 3692.719px 3692.719px 3692.719px 3692.719px 3692.719px 3692.719px 3692.719px 3692.719px 3692.719px 3692.719px 3692.719px 3692.719px 3692.719px 3692.719px 3692.719px 3692.719px 3692.719px 3692.719px 3692.719px 3692.719px 3692.719px 3692.719px 3692.719px 3692.719px 3692.719px 3692.719px 3692.719px 3692.719px 3692.719px ">De sig n &amp; En g in e e r in g St u dio</tspan></text></g></svg>