<?xml version="1.0" encoding="UTF-8" standalone="no"?><!DOCTYPE svg PUBLIC "-//W3C//DTD SVG 1.1//EN" "http://www.w3.org/Graphics/SVG/1.1/DTD/svg11.dtd"><svg width="100%" height="100%" viewBox="0 0 6000 6000" version="1.1" xmlns="http://www.w3.org/2000/svg" xmlns:xlink="http://www.w3.org/1999/xlink" xml:space="preserve" xmlns:serif="http://www.serif.com/" style="fill-rule:evenodd;clip-rule:evenodd;stroke-linejoin:round;stroke-miterlimit:2;"><rect id="Page-1" serif:id="Page 1" x="0" y="0" width="6000" height="6000" style="fill:none;"/><g id="Layer-1" serif:id="Layer 1"><rect x="0" y="0" width="6000" height="6000" style="fill:#fff;"/><path d="M1527,3009.3l71.1,18c-14.9,58.4 -41.7,102.9 -80.4,133.6c-38.7,30.7 -86.1,46 -142,46c-57.9,0 -105,-11.8 -141.3,-35.4c-36.3,-23.6 -63.9,-57.7 -82.8,-102.4c-18.9,-44.7 -28.4,-92.7 -28.4,-144c0,-55.9 10.7,-104.7 32.1,-146.4c21.4,-41.7 51.8,-73.3 91.2,-94.9c39.5,-21.6 82.9,-32.4 130.3,-32.4c53.7,0 98.9,13.7 135.6,41c36.6,27.4 62.2,65.8 76.6,115.4l-70,16.5c-12.5,-39.1 -30.5,-67.5 -54.2,-85.4c-23.7,-17.8 -53.5,-26.8 -89.4,-26.8c-41.3,0 -75.8,9.9 -103.5,29.7c-27.7,19.8 -47.2,46.4 -58.4,79.7c-11.2,33.3 -16.9,67.7 -16.9,103.2c0,45.7 6.7,85.6 20,119.6c13.3,34.1 34,59.5 62.1,76.4c28.1,16.9 58.5,25.3 91.2,25.3c39.8,0 73.5,-11.5 101.1,-34.4c27.6,-23 46.3,-57 56.1,-102.2Z" style="fill:#4d4d4d;fill-rule:nonzero;"/><path d="M1812.2,3197.7l0,-537.2l71.1,0l0,473.8l264.6,0l0,63.4l-335.7,0Z" style="fill:#4d4d4d;fill-rule:nonzero;"/><path d="M2340.4,2936c0,-89.2 23.9,-159 71.8,-209.4c47.9,-50.4 109.7,-75.7 185.4,-75.7c49.6,0 94.3,11.8 134.1,35.5c39.8,23.7 70.2,56.7 91.1,99.1c20.9,42.4 31.3,90.4 31.3,144.2c0,54.5 -11,103.2 -33,146.2c-22,43 -53.1,75.5 -93.4,97.7c-40.3,22.1 -83.8,33.2 -130.5,33.2c-50.6,0 -95.8,-12.2 -135.6,-36.6c-39.8,-24.4 -70,-57.8 -90.5,-100c-20.5,-42.3 -30.8,-87 -30.8,-134.1Zm73.3,1.1c0,64.7 17.4,115.7 52.2,153c34.8,37.3 78.5,55.9 131,55.9c53.5,0 97.5,-18.8 132.1,-56.4c34.6,-37.6 51.9,-91 51.9,-160.1c0,-43.7 -7.4,-81.9 -22.2,-114.5c-14.8,-32.6 -36.4,-57.9 -64.9,-75.9c-28.5,-18 -60.4,-26.9 -95.8,-26.9c-50.3,0 -93.6,17.3 -129.9,51.9c-36.3,34.6 -54.4,92.3 -54.4,173.1Z" style="fill:#4d4d4d;fill-rule:nonzero;"/><path d="M3427.7,2660.5l71.1,0l0,310.4c0,54 -6.1,96.9 -18.3,128.6c-12.2,31.8 -34.3,57.6 -66.1,77.5c-31.9,19.9 -73.7,29.9 -125.5,29.9c-50.3,0 -91.5,-8.7 -123.5,-26c-32,-17.3 -54.8,-42.4 -68.5,-75.3c-13.7,-32.9 -20.5,-77.7 -20.5,-134.7l0,-310.4l71.1,0l0,310c0,46.7 4.3,81 13,103.2c8.7,22.1 23.6,39.1 44.7,51.1c21.1,12 47,18 77.5,18c52.3,0 89.5,-11.8 111.8,-35.5c22.2,-23.7 33.3,-69.3 33.3,-136.7l0,-310Z" style="fill:#4d4d4d;fill-rule:nonzero;"/><path d="M3746.6,3197.7l0,-537.2l185.1,0c41.8,0 73.7,2.6 95.6,7.7c30.8,7.1 57,19.9 78.8,38.5c28.3,23.9 49.5,54.5 63.6,91.8c14,37.3 21.1,79.8 21.1,127.7c0,40.8 -4.8,77 -14.3,108.5c-9.5,31.5 -21.7,57.6 -36.6,78.2c-14.9,20.6 -31.2,36.9 -48.9,48.7c-17.7,11.8 -39.1,20.8 -64.1,26.9c-25,6.1 -53.8,9.2 -86.3,9.2l-193.8,0Zm71.1,-63.4l114.7,0c35.4,0 63.2,-3.3 83.4,-9.9c20.2,-6.6 36.2,-15.9 48.2,-27.8c16.9,-16.9 30,-39.5 39.4,-68c9.4,-28.5 14.1,-63 14.1,-103.5c0,-56.2 -9.2,-99.4 -27.7,-129.5c-18.4,-30.2 -40.9,-50.4 -67.2,-60.6c-19.1,-7.3 -49.7,-11 -92,-11l-112.9,0l0,410.4Z" style="fill:#4d4d4d;fill-rule:nonzero;"/><path d="M4393.8,3025.1l67.1,-5.9c3.2,26.9 10.6,48.9 22.2,66.1c11.6,17.2 29.6,31.1 54.1,41.8c24.4,10.6 51.9,15.9 82.4,15.9c27.1,0 51.1,-4 71.8,-12.1c20.8,-8.1 36.2,-19.1 46.4,-33.2c10.1,-14 15.2,-29.4 15.2,-46c0,-16.9 -4.9,-31.6 -14.7,-44.2c-9.8,-12.6 -25.9,-23.1 -48.4,-31.7c-14.4,-5.6 -46.3,-14.4 -95.6,-26.2c-49.3,-11.8 -83.9,-23 -103.7,-33.5c-25.7,-13.4 -44.8,-30.1 -57.3,-50c-12.6,-19.9 -18.9,-42.2 -18.9,-66.9c0,-27.1 7.7,-52.5 23.1,-76c15.4,-23.6 37.9,-41.5 67.4,-53.7c29.6,-12.2 62.4,-18.3 98.6,-18.3c39.8,0 74.9,6.4 105.4,19.2c30.4,12.8 53.8,31.7 70.2,56.6c16.4,24.9 25.2,53.1 26.4,84.6l-68.2,5.1c-3.7,-34 -16.1,-59.6 -37.2,-77c-21.1,-17.3 -52.3,-26 -93.6,-26c-43,0 -74.3,7.9 -94,23.6c-19.7,15.8 -29.5,34.8 -29.5,57c0,19.3 7,35.2 20.9,47.6c13.7,12.5 49.4,25.2 107.2,38.3c57.8,13.1 97.4,24.5 118.9,34.3c31.3,14.4 54.4,32.7 69.3,54.8c14.9,22.1 22.4,47.6 22.4,76.4c0,28.6 -8.2,55.5 -24.6,80.8c-16.4,25.3 -39.9,45 -70.5,59c-30.7,14 -65.2,21.1 -103.5,21.1c-48.6,0 -89.4,-7.1 -122.2,-21.3c-32.9,-14.2 -58.6,-35.5 -77.3,-63.9c-18.7,-28.5 -28.5,-60.6 -29.5,-96.6Z" style="fill:#4d4d4d;fill-rule:nonzero;"/><rect x="1002.8" y="2602.8" width="705.6" height="705.6" style="fill:#4d4d4d;"/><path d="M1531.3,3006.3l71.1,18c-14.9,58.4 -41.7,102.9 -80.4,133.6c-38.7,30.7 -86.1,46 -142,46c-57.9,0 -105,-11.8 -141.3,-35.4c-36.3,-23.6 -63.9,-57.7 -82.8,-102.4c-18.9,-44.7 -28.4,-92.7 -28.4,-144c0,-55.9 10.7,-104.7 32.1,-146.4c21.4,-41.7 51.8,-73.3 91.2,-94.9c39.5,-21.6 82.9,-32.4 130.3,-32.4c53.7,0 98.9,13.7 135.6,41c36.6,27.4 62.2,65.8 76.6,115.4l-70,16.5c-12.5,-39.1 -30.5,-67.5 -54.2,-85.4c-23.7,-17.8 -53.5,-26.8 -89.4,-26.8c-41.3,0 -75.8,9.9 -103.5,29.7c-27.7,19.8 -47.2,46.4 -58.4,79.7c-11.2,33.3 -16.9,67.7 -16.9,103.2c0,45.7 6.7,85.6 20,119.6c13.3,34.1 34,59.5 62.1,76.4c28.1,16.9 58.5,25.3 91.2,25.3c39.8,0 73.5,-11.5 101.1,-34.4c27.6,-23 46.3,-57 56.1,-102.2Z" style="fill:#fff;fill-rule:nonzero;"/><path d="M1114.1,3597l44.7,95.8l-10.3,0l-15,-31.5l-41.3,0l-15,31.5l-10.7,0l45.2,-95.8l2.3,0Zm-1.2,20.3l-16.5,34.7l32.7,0l-16.3,-34.7Z" style="fill-rule:nonzero;"/><path d="M1343.9,3692.7l0,-95.8l19.9,0c14.3,0 24.7,1.2 31.2,3.5c9.3,3.3 16.5,8.9 21.8,16.9c5.2,8 7.8,17.6 7.8,28.7c0,9.6 -2.1,18 -6.2,25.3c-4.1,7.3 -9.5,12.7 -16.1,16.1c-6.6,3.5 -15.9,5.2 -27.8,5.2l-30.5,0Zm9.2,-9l11.1,0c13.2,0 22.4,-0.8 27.5,-2.5c7.2,-2.3 12.9,-6.6 17,-12.7c4.1,-6.1 6.2,-13.5 6.2,-22.3c0,-9.2 -2.2,-17.1 -6.7,-23.7c-4.5,-6.5 -10.7,-11 -18.7,-13.5c-6,-1.8 -15.9,-2.7 -29.6,-2.7l-6.8,0l0,77.3Z" style="fill-rule:nonzero;"/><path d="M1567.9,3669.2l7.7,4c-2.5,4.9 -5.4,8.9 -8.7,12c-3.3,3 -7,5.3 -11.1,6.9c-4.1,1.6 -8.8,2.4 -14,2.4c-11.5,0 -20.6,-3.8 -27.1,-11.4c-6.5,-7.6 -9.8,-16.1 -9.8,-25.7c0,-9 2.8,-17 8.3,-24c7,-8.9 16.3,-13.4 28.1,-13.4c12.1,0 21.7,4.6 28.9,13.7c5.1,6.5 7.7,14.5 7.8,24.2l-63.7,0c0.2,8.2 2.8,15 7.9,20.2c5.1,5.3 11.3,7.9 18.8,7.9c3.6,0 7.1,-0.6 10.5,-1.9c3.4,-1.3 6.3,-2.9 8.7,-5c2.4,-2.1 5,-5.4 7.7,-10.1Zm0,-19.1c-1.2,-4.9 -3,-8.7 -5.3,-11.7c-2.3,-2.9 -5.4,-5.3 -9.2,-7c-3.8,-1.8 -7.8,-2.7 -12,-2.7c-6.9,0 -12.9,2.2 -17.9,6.7c-3.6,3.3 -6.4,8.1 -8.3,14.6l52.7,0Z" style="fill-rule:nonzero;"/><path d="M1697.2,3629.6l-5.9,6.1c-4.9,-4.7 -9.6,-7.1 -14.3,-7.1c-3,0 -5.5,1 -7.6,2.9c-2.1,2 -3.2,4.2 -3.2,6.8c0,2.3 0.9,4.5 2.6,6.6c1.7,2.1 5.4,4.6 10.9,7.5c6.8,3.5 11.4,6.9 13.8,10.2c2.4,3.3 3.6,7 3.6,11.1c0,5.8 -2,10.7 -6.1,14.8c-4.1,4 -9.2,6.1 -15.3,6.1c-4.1,0 -8,-0.9 -11.7,-2.7c-3.7,-1.8 -6.8,-4.2 -9.2,-7.4l5.7,-6.5c4.6,5.3 9.6,7.9 14.8,7.9c3.6,0 6.7,-1.2 9.3,-3.5c2.6,-2.3 3.8,-5.1 3.8,-8.3c0,-2.6 -0.8,-4.9 -2.5,-7c-1.7,-2 -5.5,-4.5 -11.5,-7.6c-6.4,-3.3 -10.7,-6.6 -13,-9.8c-2.3,-3.2 -3.5,-6.9 -3.5,-11c0,-5.4 1.8,-9.9 5.5,-13.4c3.7,-3.6 8.3,-5.3 13.9,-5.3c6.5,0 13.1,3.2 19.7,9.6Z" style="fill-rule:nonzero;"/><path d="M1783.2,3592.7c2.1,0 3.9,0.7 5.3,2.2c1.5,1.5 2.2,3.3 2.2,5.3c0,2 -0.7,3.8 -2.2,5.3c-1.5,1.5 -3.3,2.2 -5.3,2.2c-2,0 -3.8,-0.7 -5.3,-2.2c-1.5,-1.5 -2.2,-3.2 -2.2,-5.3c0,-2.1 0.7,-3.9 2.2,-5.3c1.5,-1.5 3.2,-2.2 5.3,-2.2Zm-4.6,29.2l9.2,0l0,70.8l-9.2,0l0,-70.8Z" style="fill-rule:nonzero;"/><path d="M1934.3,3621.9l9.2,0l0,56.4c0,9.9 -0.9,17.2 -2.6,21.8c-2.4,6.5 -6.5,11.5 -12.4,15c-5.9,3.5 -13,5.3 -21.3,5.3c-6.1,0 -11.5,-0.9 -16.4,-2.6c-4.8,-1.7 -8.8,-4 -11.8,-6.9c-3,-2.9 -5.8,-7.1 -8.4,-12.7l9.9,0c2.7,4.7 6.2,8.2 10.4,10.4c4.3,2.3 9.5,3.4 15.8,3.4c6.2,0 11.4,-1.2 15.7,-3.5c4.3,-2.3 7.3,-5.2 9.1,-8.7c1.8,-3.5 2.7,-9.2 2.7,-17l0,-3.6c-3.4,4.3 -7.6,7.7 -12.6,10c-4.9,2.3 -10.2,3.5 -15.8,3.5c-6.5,0 -12.6,-1.6 -18.4,-4.9c-5.7,-3.2 -10.2,-7.6 -13.3,-13.1c-3.1,-5.5 -4.7,-11.5 -4.7,-18c0,-6.6 1.6,-12.7 4.9,-18.3c3.3,-5.7 7.8,-10.1 13.5,-13.4c5.8,-3.3 11.8,-4.9 18.2,-4.9c5.3,0 10.2,1.1 14.8,3.3c4.6,2.2 9,5.8 13.2,10.8l0,-12.3Zm-26.9,7c-5.2,0 -10,1.2 -14.4,3.7c-4.4,2.5 -7.9,5.9 -10.4,10.4c-2.5,4.4 -3.8,9.2 -3.8,14.3c0,7.8 2.6,14.2 7.8,19.3c5.2,5.1 12,7.6 20.2,7.6c8.4,0 15.1,-2.5 20.2,-7.6c5.1,-5 7.6,-11.7 7.6,-19.9c0,-5.3 -1.2,-10.1 -3.5,-14.3c-2.3,-4.2 -5.7,-7.5 -10,-9.9c-4.3,-2.4 -8.9,-3.6 -13.9,-3.6Z" style="fill-rule:nonzero;"/><path d="M2029.7,3621.9l9.1,0l0,12.7c3.6,-4.9 7.7,-8.5 12.1,-10.9c4.4,-2.4 9.2,-3.6 14.5,-3.6c5.3,0 10,1.3 14.1,4c4.1,2.7 7.1,6.3 9.1,10.9c2,4.6 2.9,11.7 2.9,21.3l0,36.5l-9,0l0,-33.8c0,-8.2 -0.3,-13.6 -1,-16.3c-1.1,-4.7 -3.1,-8.2 -6.1,-10.6c-3,-2.4 -6.9,-3.5 -11.7,-3.5c-5.5,0 -10.4,1.8 -14.8,5.5c-4.4,3.6 -7.2,8.2 -8.6,13.5c-0.9,3.5 -1.3,9.9 -1.3,19.3l0,26l-9.1,0l0,-70.8Z" style="fill-rule:nonzero;"/><path d="M2355.2,3657.3l6.5,6.9c-4.2,3.7 -8.1,6.9 -11.9,9.5c2.6,2.4 6,5.6 10.2,9.9c3.3,3.3 6.1,6.3 8.5,9.1l-13.3,0l-12.7,-13.1c-8,6.4 -14.5,10.6 -19.5,12.6c-5,2 -10.3,2.9 -15.8,2.9c-7.4,0 -13.3,-2.1 -17.8,-6.3c-4.5,-4.2 -6.7,-9.5 -6.7,-15.9c0,-4.8 1.5,-9.6 4.5,-14.4c3,-4.8 9.2,-10.9 18.5,-18.2c-5.3,-6.3 -8.6,-11 -10.1,-14c-1.5,-3 -2.2,-5.9 -2.2,-8.6c0,-4.8 1.8,-8.7 5.5,-11.8c4.3,-3.6 9.5,-5.5 15.9,-5.5c4,0 7.6,0.8 10.9,2.4c3.3,1.6 5.8,3.8 7.6,6.5c1.7,2.7 2.6,5.6 2.6,8.6c0,3.2 -1.1,6.6 -3.4,10.3c-2.3,3.6 -6.7,8.3 -13.3,13.9l14.5,15.2l9.5,9.6c5.1,-3.8 9.1,-7 12.1,-9.6Zm-42,-22.4c4.6,-3.6 8.1,-7.1 10.5,-10.6c1.6,-2.5 2.5,-4.7 2.5,-6.6c0,-2.2 -1.1,-4.1 -3.2,-5.7c-2.1,-1.6 -5,-2.4 -8.6,-2.4c-3.4,0 -6.1,0.8 -8.3,2.5c-2.1,1.6 -3.2,3.6 -3.2,5.9c0,1.7 0.4,3.4 1.3,4.9c2.1,3.7 5.1,7.7 9,12.1Zm-1.2,12.7c-8.1,6.1 -13.4,11 -16,14.6c-2.5,3.6 -3.8,7 -3.8,10.1c0,3.6 1.5,6.9 4.6,9.7c3.1,2.8 6.9,4.2 11.3,4.2c3.4,0 6.7,-0.7 10,-2.1c5.1,-2.2 11,-6 17.6,-11.3l-15.1,-15.6c-2.6,-2.7 -5.5,-5.9 -8.7,-9.6Z" style="fill-rule:nonzero;"/><path d="M2554.1,3597l54.9,0l0,9.4l-45.3,0l0,30l44.9,0l0,9.4l-44.9,0l0,37.6l44.9,0l0,9.4l-54.5,0l0,-95.8Z" style="fill-rule:nonzero;"/><path d="M2690.6,3621.9l9.1,0l0,12.7c3.6,-4.9 7.7,-8.5 12.1,-10.9c4.4,-2.4 9.2,-3.6 14.5,-3.6c5.3,0 10,1.3 14.1,4c4.1,2.7 7.1,6.3 9.1,10.9c2,4.6 2.9,11.7 2.9,21.3l0,36.5l-9,0l0,-33.8c0,-8.2 -0.3,-13.6 -1,-16.3c-1.1,-4.7 -3.1,-8.2 -6.1,-10.6c-3,-2.4 -6.9,-3.5 -11.7,-3.5c-5.5,0 -10.4,1.8 -14.8,5.5c-4.4,3.6 -7.2,8.2 -8.6,13.5c-0.9,3.5 -1.3,9.9 -1.3,19.3l0,26l-9.1,0l0,-70.8Z" style="fill-rule:nonzero;"/><path d="M2899.6,3621.9l9.2,0l0,56.4c0,9.9 -0.9,17.2 -2.6,21.8c-2.4,6.5 -6.5,11.5 -12.4,15c-5.9,3.5 -13,5.3 -21.3,5.3c-6.1,0 -11.5,-0.9 -16.4,-2.6c-4.8,-1.7 -8.8,-4 -11.8,-6.9c-3,-2.9 -5.8,-7.1 -8.4,-12.7l9.9,0c2.7,4.7 6.2,8.2 10.4,10.4c4.3,2.3 9.5,3.4 15.8,3.4c6.2,0 11.4,-1.2 15.7,-3.5c4.3,-2.3 7.3,-5.2 9.1,-8.7c1.8,-3.5 2.7,-9.2 2.7,-17l0,-3.6c-3.4,4.3 -7.6,7.7 -12.6,10c-4.9,2.3 -10.2,3.5 -15.8,3.5c-6.5,0 -12.6,-1.6 -18.4,-4.9c-5.7,-3.2 -10.2,-7.6 -13.3,-13.1c-3.1,-5.5 -4.7,-11.5 -4.7,-18c0,-6.6 1.6,-12.7 4.9,-18.3c3.3,-5.7 7.8,-10.1 13.5,-13.4c5.8,-3.3 11.8,-4.9 18.2,-4.9c5.3,0 10.2,1.1 14.8,3.3c4.6,2.2 9,5.8 13.2,10.8l0,-12.3Zm-26.9,7c-5.2,0 -10,1.2 -14.4,3.7c-4.4,2.5 -7.9,5.9 -10.4,10.4c-2.5,4.4 -3.8,9.2 -3.8,14.3c0,7.8 2.6,14.2 7.8,19.3c5.2,5.1 12,7.6 20.2,7.6c8.4,0 15.1,-2.5 20.2,-7.6c5.1,-5 7.6,-11.7 7.6,-19.9c0,-5.3 -1.2,-10.1 -3.5,-14.3c-2.3,-4.2 -5.7,-7.5 -10,-9.9c-4.3,-2.4 -8.9,-3.6 -13.9,-3.6Z" style="fill-rule:nonzero;"/><path d="M2998.2,3592.7c2.1,0 3.9,0.7 5.3,2.2c1.5,1.5 2.2,3.3 2.2,5.3c0,2 -0.7,3.8 -2.2,5.3c-1.5,1.5 -3.3,2.2 -5.3,2.2c-2,0 -3.8,-0.7 -5.3,-2.2c-1.5,-1.5 -2.2,-3.2 -2.2,-5.3c0,-2.1 0.7,-3.9 2.2,-5.3c1.5,-1.5 3.2,-2.2 5.3,-2.2Zm-4.6,29.2l9.2,0l0,70.8l-9.2,0l0,-70.8Z" style="fill-rule:nonzero;"/><path d="M3088.4,3621.9l9.1,0l0,12.7c3.6,-4.9 7.7,-8.5 12.1,-10.9c4.4,-2.4 9.2,-3.6 14.5,-3.6c5.3,0 10,1.3 14.1,4c4.1,2.7 7.1,6.3 9.1,10.9c2,4.6 2.9,11.7 2.9,21.3l0,36.5l-9,0l0,-33.8c0,-8.2 -0.3,-13.6 -1,-16.3c-1.1,-4.7 -3.1,-8.2 -6.1,-10.6c-3,-2.4 -6.9,-3.5 -11.7,-3.5c-5.5,0 -10.4,1.8 -14.8,5.5c-4.4,3.6 -7.2,8.2 -8.6,13.5c-0.9,3.5 -1.3,9.9 -1.3,19.3l0,26l-9.1,0l0,-70.8Z" style="fill-rule:nonzero;"/><path d="M3296,3669.2l7.7,4c-2.5,4.9 -5.4,8.9 -8.7,12c-3.3,3 -7,5.3 -11.1,6.9c-4.1,1.6 -8.8,2.4 -14,2.4c-11.5,0 -20.6,-3.8 -27.1,-11.4c-6.5,-7.6 -9.8,-16.1 -9.8,-25.7c0,-9 2.8,-17 8.3,-24c7,-8.9 16.3,-13.4 28.1,-13.4c12.1,0 21.7,4.6 28.9,13.7c5.1,6.5 7.7,14.5 7.8,24.2l-63.7,0c0.2,8.2 2.8,15 7.9,20.2c5.1,5.3 11.3,7.9 18.8,7.9c3.6,0 7.1,-0.6 10.5,-1.9c3.4,-1.3 6.3,-2.9 8.7,-5c2.4,-2.1 5,-5.4 7.7,-10.1Zm0,-19.1c-1.2,-4.9 -3,-8.7 -5.3,-11.7c-2.3,-2.9 -5.4,-5.3 -9.2,-7c-3.8,-1.8 -7.8,-2.7 -12,-2.7c-6.9,0 -12.9,2.2 -17.9,6.7c-3.6,3.3 -6.4,8.1 -8.3,14.6l52.7,0Z" style="fill-rule:nonzero;"/><path d="M3449.3,3669.2l7.7,4c-2.5,4.9 -5.4,8.9 -8.7,12c-3.3,3 -7,5.3 -11.1,6.9c-4.1,1.6 -8.8,2.4 -14,2.4c-11.5,0 -20.6,-3.8 -27.1,-11.4c-6.5,-7.6 -9.8,-16.1 -9.8,-25.7c0,-9 2.8,-17 8.3,-24c7,-8.9 16.3,-13.4 28.1,-13.4c12.1,0 21.7,4.6 28.9,13.7c5.1,6.5 7.7,14.5 7.8,24.2l-63.7,0c0.2,8.2 2.8,15 7.9,20.2c5.1,5.3 11.3,7.9 18.8,7.9c3.6,0 7.1,-0.6 10.5,-1.9c3.4,-1.3 6.3,-2.9 8.7,-5c2.4,-2.1 5,-5.4 7.7,-10.1Zm0,-19.1c-1.2,-4.9 -3,-8.7 -5.3,-11.7c-2.3,-2.9 -5.4,-5.3 -9.2,-7c-3.8,-1.8 -7.8,-2.7 -12,-2.7c-6.9,0 -12.9,2.2 -17.9,6.7c-3.6,3.3 -6.4,8.1 -8.3,14.6l52.7,0Z" style="fill-rule:nonzero;"/><path d="M3539.6,3621.9l9.3,0l0,10.4c2.8,-4.1 5.7,-7.1 8.8,-9.1c3.1,-2 6.3,-3 9.6,-3c2.5,0 5.2,0.8 8.1,2.4l-4.8,7.7c-1.9,-0.8 -3.5,-1.2 -4.8,-1.2c-3,0 -6,1.2 -8.8,3.7c-2.8,2.5 -5,6.4 -6.4,11.6c-1.1,4 -1.7,12.2 -1.7,24.5l0,24l-9.3,0l0,-70.8Z" style="fill-rule:nonzero;"/><path d="M3653,3592.7c2.1,0 3.9,0.7 5.3,2.2c1.5,1.5 2.2,3.3 2.2,5.3c0,2 -0.7,3.8 -2.2,5.3c-1.5,1.5 -3.3,2.2 -5.3,2.2c-2,0 -3.8,-0.7 -5.3,-2.2c-1.5,-1.5 -2.2,-3.2 -2.2,-5.3c0,-2.1 0.7,-3.9 2.2,-5.3c1.5,-1.5 3.2,-2.2 5.3,-2.2Zm-4.6,29.2l9.2,0l0,70.8l-9.2,0l0,-70.8Z" style="fill-rule:nonzero;"/><path d="M3743.2,3621.9l9.1,0l0,12.7c3.6,-4.9 7.7,-8.5 12.1,-10.9c4.4,-2.4 9.2,-3.6 14.5,-3.6c5.3,0 10,1.3 14.1,4c4.1,2.7 7.1,6.3 9.1,10.9c2,4.6 2.9,11.7 2.9,21.3l0,36.5l-9,0l0,-33.8c0,-8.2 -0.3,-13.6 -1,-16.3c-1.1,-4.7 -3.1,-8.2 -6.1,-10.6c-3,-2.4 -6.9,-3.5 -11.7,-3.5c-5.5,0 -10.4,1.8 -14.8,5.5c-4.4,3.6 -7.2,8.2 -8.6,13.5c-0.9,3.5 -1.3,9.9 -1.3,19.3l0,26l-9.1,0l0,-70.8Z" style="fill-rule:nonzero;"/><path d="M3952.2,3621.9l9.2,0l0,56.4c0,9.9 -0.9,17.2 -2.6,21.8c-2.4,6.5 -6.5,11.5 -12.4,15c-5.9,3.5 -13,5.3 -21.3,5.3c-6.1,0 -11.5,-0.9 -16.4,-2.6c-4.8,-1.7 -8.8,-4 -11.8,-6.9c-3,-2.9 -5.8,-7.1 -8.4,-12.7l9.9,0c2.7,4.7 6.2,8.2 10.4,10.4c4.3,2.3 9.5,3.4 15.8,3.4c6.2,0 11.4,-1.2 15.7,-3.5c4.3,-2.3 7.3,-5.2 9.1,-8.7c1.8,-3.5 2.7,-9.2 2.7,-17l0,-3.6c-3.4,4.3 -7.6,7.7 -12.6,10c-4.9,2.3 -10.2,3.5 -15.8,3.5c-6.5,0 -12.6,-1.6 -18.4,-4.9c-5.7,-3.2 -10.2,-7.6 -13.3,-13.1c-3.1,-5.5 -4.7,-11.5 -4.7,-18c0,-6.6 1.6,-12.7 4.9,-18.3c3.3,-5.7 7.8,-10.1 13.5,-13.4c5.8,-3.3 11.8,-4.9 18.2,-4.9c5.3,0 10.2,1.1 14.8,3.3c4.6,2.2 9,5.8 13.2,10.8l0,-12.3Zm-26.9,7c-5.2,0 -10,1.2 -14.4,3.7c-4.4,2.5 -7.9,5.9 -10.4,10.4c-2.5,4.4 -3.8,9.2 -3.8,14.3c0,7.8 2.6,14.2 7.8,19.3c5.2,5.1 12,7.6 20.2,7.6c8.4,0 15.1,-2.5 20.2,-7.6c5.1,-5 7.6,-11.7 7.6,-19.9c0,-5.3 -1.2,-10.1 -3.5,-14.3c-2.3,-4.2 -5.7,-7.5 -10,-9.9c-4.3,-2.4 -8.9,-3.6 -13.9,-3.6Z" style="fill-rule:nonzero;"/><path d="M4142.8,3674.9l8.1,-4.9c5.7,10.5 12.3,15.8 19.9,15.8c3.2,0 6.2,-0.7 9,-2.2c2.8,-1.5 5,-3.5 6.4,-6c1.5,-2.5 2.2,-5.2 2.2,-8c0,-3.2 -1.1,-6.4 -3.3,-9.4c-3,-4.3 -8.5,-9.4 -16.4,-15.4c-8,-6 -13,-10.4 -14.9,-13.1c-3.4,-4.5 -5.1,-9.4 -5.1,-14.6c0,-4.2 1,-8 3,-11.4c2,-3.4 4.8,-6.1 8.4,-8.1c3.6,-2 7.6,-3 11.8,-3c4.5,0 8.7,1.1 12.7,3.4c3.9,2.2 8.1,6.3 12.5,12.3l-7.8,5.9c-3.6,-4.8 -6.7,-7.9 -9.2,-9.4c-2.5,-1.5 -5.3,-2.3 -8.3,-2.3c-3.9,0 -7,1.2 -9.5,3.5c-2.5,2.3 -3.7,5.2 -3.7,8.7c0,2.1 0.4,4.1 1.3,6.1c0.9,2 2.5,4.1 4.8,6.4c1.3,1.2 5.4,4.4 12.4,9.6c8.3,6.1 14,11.6 17.1,16.3c3.1,4.8 4.6,9.6 4.6,14.4c0,6.9 -2.6,13 -7.9,18.1c-5.3,5.1 -11.7,7.7 -19.2,7.7c-5.8,0 -11.1,-1.6 -15.8,-4.7c-4.7,-3.1 -9.1,-8.3 -13.1,-15.6Z" style="fill-rule:nonzero;"/><path d="M4292.2,3595.6l9.2,0l0,26.3l14.5,0l0,7.9l-14.5,0l0,63l-9.2,0l0,-63l-12.4,0l0,-7.9l12.4,0l0,-26.3Z" style="fill-rule:nonzero;"/><path d="M4394.9,3621.9l9.2,0l0,33.1c0,8.1 0.4,13.6 1.3,16.7c1.3,4.3 3.8,7.8 7.5,10.3c3.7,2.5 8,3.8 13.1,3.8c5.1,0 9.4,-1.2 12.9,-3.7c3.5,-2.5 6,-5.7 7.3,-9.7c0.9,-2.7 1.4,-8.5 1.4,-17.4l0,-33.1l9.3,0l0,34.8c0,9.8 -1.1,17.1 -3.4,22.1c-2.3,4.9 -5.7,8.8 -10.3,11.6c-4.6,2.8 -10.3,4.2 -17.2,4.2c-6.9,0 -12.7,-1.4 -17.3,-4.2c-4.6,-2.8 -8.1,-6.7 -10.4,-11.7c-2.3,-5 -3.4,-12.6 -3.4,-22.6l0,-34.1Z" style="fill-rule:nonzero;"/><path d="M4614.5,3594.5l0,98.2l-9,0l0,-12.2c-3.8,4.6 -8.1,8.1 -12.9,10.5c-4.8,2.3 -10,3.5 -15.6,3.5c-10,0 -18.6,-3.6 -25.7,-10.9c-7.1,-7.3 -10.6,-16.1 -10.6,-26.5c0,-10.2 3.6,-18.9 10.7,-26.2c7.2,-7.2 15.8,-10.9 25.8,-10.9c5.8,0 11.1,1.2 15.8,3.7c4.7,2.5 8.8,6.2 12.4,11.1l0,-40.4l9,0Zm-36.5,34.3c-5.1,0 -9.8,1.2 -14.1,3.7c-4.3,2.5 -7.7,6 -10.3,10.5c-2.5,4.5 -3.8,9.3 -3.8,14.3c0,5 1.3,9.8 3.8,14.3c2.6,4.6 6,8.1 10.3,10.6c4.3,2.5 9,3.8 13.9,3.8c5,0 9.7,-1.3 14.2,-3.8c4.5,-2.5 7.9,-5.9 10.3,-10.2c2.4,-4.3 3.6,-9.1 3.6,-14.5c0,-8.2 -2.7,-15 -8.1,-20.5c-5.4,-5.5 -12.1,-8.3 -20,-8.3Z" style="fill-rule:nonzero;"/><path d="M4705,3592.7c2.1,0 3.9,0.7 5.3,2.2c1.5,1.5 2.2,3.3 2.2,5.3c0,2 -0.7,3.8 -2.2,5.3c-1.5,1.5 -3.3,2.2 -5.3,2.2c-2,0 -3.8,-0.7 -5.3,-2.2c-1.5,-1.5 -2.2,-3.2 -2.2,-5.3c0,-2.1 0.7,-3.9 2.2,-5.3c1.5,-1.5 3.2,-2.2 5.3,-2.2Zm-4.6,29.2l9.2,0l0,70.8l-9.2,0l0,-70.8Z" style="fill-rule:nonzero;"/><path d="M4828.7,3620.1c10.9,0 19.9,3.9 27.1,11.8c6.5,7.2 9.8,15.7 9.8,25.6c0,9.9 -3.4,18.5 -10.3,25.9c-6.9,7.4 -15.7,11.1 -26.5,11.1c-10.9,0 -19.7,-3.7 -26.6,-11.1c-6.9,-7.4 -10.3,-16 -10.3,-25.9c0,-9.8 3.3,-18.3 9.8,-25.5c7.2,-7.9 16.2,-11.9 27.1,-11.9Zm0,8.9c-7.6,0 -14,2.8 -19.5,8.4c-5.4,5.6 -8.1,12.4 -8.1,20.3c0,5.1 1.2,9.9 3.7,14.3c2.5,4.4 5.8,7.8 10,10.3c4.2,2.4 8.8,3.6 13.9,3.6c5,0 9.7,-1.2 13.9,-3.6c4.2,-2.4 7.6,-5.8 10,-10.3c2.5,-4.4 3.7,-9.2 3.7,-14.3c0,-7.9 -2.7,-14.7 -8.2,-20.3c-5.4,-5.6 -11.9,-8.4 -19.4,-8.4Z" style="fill-rule:nonzero;"/></g></svg>